<svg width="237" height="35" viewBox="0 0 237 35" fill="none" xmlns="http://www.w3.org/2000/svg">
<rect width="237" height="35" fill="#413F3F"/>
<g id="13/10/23_Consultation to date">
<rect width="1365.12" height="3287.98" transform="translate(-46.5605 -21.9902)" fill="white"/>
<rect id="Rectangle 12" x="-46.5605" y="-21.9902" width="1365.12" height="78.21" fill="white"/>
<g id="Header" clip-path="url(#clip0_0_1)">
<rect width="1365.12" height="81.37" transform="translate(-46.5605 -23.5703)" fill="#DBD6D1"/>
<g id="Group 4">
<g id="Layer_1" clip-path="url(#clip1_0_1)">
<g id="Group">
<g id="Group_2">
<path id="Vector" d="M204.181 0.539062H197.912V2.75964H204.181C208.475 2.75964 211.971 6.25478 211.971 10.5497V19.6382C211.971 22.4631 210.444 24.9175 208.186 26.2832C210.463 28.2723 211.774 31.1512 211.784 34.5588H214.007C214.007 31.5325 213.102 28.7567 211.423 26.5194C213.189 24.6861 214.192 22.2497 214.192 19.6394V10.5509C214.192 5.03058 209.701 0.540262 204.181 0.540262V0.539062Z" fill="#001717"/>
<path id="Vector_2" d="M202.125 34.5582H204.346V28.7718C203.692 28.3785 202.951 28.0644 202.125 27.8438V34.5582Z" fill="#001717"/>
<path id="Vector_3" d="M204.347 7.00781H202.125V23.1778H205.607V20.9572H204.347V7.00781Z" fill="#001717"/>
</g>
<g id="Group_3">
<path id="Vector_4" d="M158.412 0.181641C154.488 0.181641 150.987 2.52932 149.492 6.16114L151.549 7.00885C152.66 4.30986 155.315 2.40342 158.41 2.40342C162.503 2.40342 165.831 5.73189 165.831 9.82294V25.319C165.831 29.4101 162.503 32.7386 158.41 32.7386V34.9591C163.727 34.9591 168.052 30.6343 168.052 25.3178V9.82414C168.052 4.50769 163.726 0.18284 158.41 0.18284L158.412 0.181641Z" fill="#001717"/>
<path id="Vector_5" d="M158.412 26.7894C157.888 26.7894 157.461 26.3626 157.461 25.8386V9.77416C157.461 9.25019 157.888 8.82334 158.412 8.82334V6.60156C156.662 6.60156 155.24 8.0248 155.24 9.77296V25.8386C155.24 27.588 156.662 29.01 158.412 29.01V26.7894Z" fill="#001717"/>
</g>
<g id="Group_4">
<path id="Vector_6" d="M184.446 2.75964H188.658V25.3192C188.658 29.4114 185.329 32.7399 181.238 32.7399V34.9605C186.555 34.9605 190.88 30.6344 190.88 25.3192V0.539062H184.446V2.76084V2.75964Z" fill="#001717"/>
<path id="Vector_7" d="M181.238 26.8419C180.714 26.8419 180.287 26.4151 180.287 25.8911V0.539062H173.854V2.76084H178.066V25.8911C178.066 27.6405 179.488 29.0625 181.237 29.0625V26.8419H181.238Z" fill="#001717"/>
</g>
<g id="Group_5">
<path id="Vector_8" d="M219.992 0.539062V2.75964H234.042V7.00776H236.263V0.539062H219.992Z" fill="#001717"/>
<path id="Vector_9" d="M231.344 7.37891H229.123V34.557H231.344V7.37891Z" fill="#001717"/>
</g>
<g id="Group_6">
<path id="Vector_10" d="M141.157 25.3196C141.157 29.4119 137.829 32.7391 133.736 32.7391V34.9597C139.053 34.9597 143.378 30.6349 143.378 25.3184V23.1758H141.157V25.3184V25.3196Z" fill="#001717"/>
<path id="Vector_11" d="M133.736 26.7391C133.212 26.7391 132.785 26.3122 132.785 25.7882V9.77296C132.785 9.24899 133.212 8.82214 133.736 8.82214V6.60156C131.986 6.60156 130.564 8.0236 130.564 9.77296V25.7894C130.564 27.5388 131.988 28.9608 133.736 28.9608V26.7403V26.7391Z" fill="#001717"/>
<path id="Vector_12" d="M133.736 0.132812C129.783 0.132812 126.272 2.50447 124.791 6.17466L126.856 7.00798C127.955 4.28381 130.622 2.35459 133.736 2.35459C137.828 2.35459 141.156 5.68306 141.156 9.77411V12.5139H143.377V9.77411C143.377 4.45767 139.051 0.132812 133.736 0.132812Z" fill="#001717"/>
</g>
</g>
<g id="Group_7">
<g id="Group_8">
<path id="Vector_13" d="M4.26562 7.00781V15.9849H13.383V20.197H15.6047V13.7631H6.48621V7.00781H4.26562Z" fill="#001717"/>
<path id="Vector_14" d="M6.48621 20.957H4.26562V30.5935H14.1599V34.5575H16.3817V28.3718H6.48621V20.957Z" fill="#001717"/>
<path id="Vector_15" d="M0.0527344 2.75964H14.1604V7.00776H16.3821V0.539062H0.0527344V2.75964Z" fill="#001717"/>
</g>
<g id="Group_9">
<path id="Vector_16" d="M39.0851 34.5566V9.77411C39.0851 5.68187 35.7566 2.35459 31.6644 2.35459C28.5685 2.35459 25.9139 4.26103 24.8024 6.96002L22.7461 6.11231C24.2401 2.48049 27.7412 0.132812 31.6644 0.132812C36.9808 0.132812 41.3057 4.45767 41.3057 9.77411V34.5566H39.0851Z" fill="#001717"/>
<path id="Vector_17" d="M30.7616 27.4258H28.541V34.5563H30.7616V27.4258Z" fill="#001717"/>
<path id="Vector_18" d="M30.7616 10.1166C30.7616 9.33967 31.2136 8.82409 31.5122 8.82409V6.60352C29.8731 6.60352 28.541 8.18022 28.541 10.1178V23.1775H34.4845V20.9569H30.7616V10.1178V10.1166Z" fill="#001717"/>
</g>
<g id="Group_10">
<path id="Vector_19" d="M53.7235 0.539062H47.4551V2.75964H53.7235C58.0184 2.75964 61.5136 6.25478 61.5136 10.5497V19.6382C61.5136 22.4631 59.9872 24.9175 57.7295 26.2832C60.0064 28.2723 61.3169 31.1512 61.3265 34.5588H63.5495C63.5495 31.5325 62.6454 28.7567 60.9656 26.5194C62.7318 24.6861 63.7353 22.2497 63.7353 19.6394V10.5509C63.7353 5.03058 59.2438 0.540262 53.7235 0.540262V0.539062Z" fill="#001717"/>
<path id="Vector_20" d="M51.668 34.5582H53.8886V28.7718C53.2351 28.3785 52.4941 28.0644 51.668 27.8438V34.5582Z" fill="#001717"/>
<path id="Vector_21" d="M53.8886 7.00781H51.668V23.1778H55.1487V20.9572H53.8886V7.00781Z" fill="#001717"/>
</g>
<path id="Vector_22" d="M77.5464 0.537109H71.1641V2.75769H75.3246V30.3315H85.195V34.5556H87.4155V28.1097H77.5464V0.537109Z" fill="#001717"/>
<g id="Group_11">
<path id="Vector_23" d="M102.836 14.5542H102.834C99.2889 12.1226 99.2889 11.3708 99.2889 10.2341C99.2889 9.26414 99.9436 8.66463 100.231 8.66103L100.195 6.60352C98.5012 6.62869 97.0684 8.29173 97.0684 10.2341C97.0684 12.2976 97.6858 13.583 101.514 16.2088C105.406 18.8803 107.66 21.2339 107.66 25.3334C107.66 29.4328 104.382 32.8452 100.351 32.9028L100.385 34.9615C105.621 34.8871 109.882 30.5683 109.882 25.3346C109.882 20.4018 107.066 17.4582 102.838 14.5554L102.836 14.5542Z" fill="#001717"/>
<path id="Vector_24" d="M107.656 10.5187V12.5343H109.878V10.5187C109.878 7.60389 108.735 4.80778 106.743 2.84499C104.991 1.122 102.65 0.159191 100.152 0.132812L100.129 2.35339C101.974 2.37258 103.798 3.06201 105.186 4.42769C106.757 5.97443 107.658 8.19501 107.658 10.5187H107.656Z" fill="#001717"/>
<path id="Vector_25" d="M99.8308 28.2922C99.4939 27.9601 99.2924 27.4085 99.2924 26.815V22.8906H93.2422V25.1112H97.0718V26.8138C97.0718 28.008 97.5107 29.1243 98.2745 29.8761C98.6809 30.2754 99.284 30.7526 100.285 30.731L100.236 28.5104C100.109 28.5128 100.057 28.514 99.832 28.2922H99.8308Z" fill="#001717"/>
</g>
</g>
</g>
</g>
</g>
</g>
<defs>
<clipPath id="clip0_0_1">
<rect width="1365.12" height="81.37" fill="white" transform="translate(-46.5605 -23.5703)"/>
</clipPath>
<clipPath id="clip1_0_1">
<rect width="236.21" height="34.8279" fill="white" transform="translate(0.0507812 0.130859)"/>
</clipPath>
</defs>
</svg>
